# xmcd CD database file
#
# Track frame offsets:
#	150
#	9788
#	24067
#	33049
#	44225
#	52202
#	65598
#	72930
#	87525
#	101340
#	117398
#	131019
#	146417
#	163222
#
# Disc length: 2397 seconds
#
# Revision: 0
# Processed by: cddbd v1.5.2PL0 Copyright (c) Steve Scherf et al.
# Submitted via: CDex 1.60beta1-cs1
#
DISCID=c0095b0e
DTITLE=Alunos do Curso de Arranjo - apresentação dos trabalhos - Curso de Arranjo - CEP-EMB, I/2010, 1º bimestre
DYEAR=2010
DGENRE=Jazz
TTITLE0=Cairo Vítor
TTITLE1=Kaçulinha
TTITLE2=Jessé Gomes
TTITLE3=Célio de Oliveira
TTITLE4=Alexandre Lacerda
TTITLE5=Diana Mota
TTITLE6=Westony Rodrigues
TTITLE7=Elton Mendes
TTITLE8=Thanise Silva
TTITLE9=Gabriel Lourenço
TTITLE10=Wanderson Silva
TTITLE11=Alexandre Pelicarto
TTITLE12=Paulo Rezende
TTITLE13=Luciana Oliveira
EXTD=YEAR: 2010
EXTT0=
EXTT1=
EXTT2=
EXTT3=
EXTT4=
EXTT5=
EXTT6=
EXTT7=
EXTT8=
EXTT9=
EXTT10=
EXTT11=
EXTT12=
EXTT13=
PLAYORDER=
